<?xml version="1.0" encoding="utf-8"?>
<!-- Generator: Adobe Illustrator 28.3.0, SVG Export Plug-In . SVG Version: 6.00 Build 0)  -->
<svg version="1.1" id="Warstwa_1" xmlns="http://www.w3.org/2000/svg" xmlns:xlink="http://www.w3.org/1999/xlink" x="0px" y="0px"
	 viewBox="0 0 1000 1000" style="enable-background:new 0 0 1000 1000;" xml:space="preserve">
<style type="text/css">
	.st0{fill:#1FB5B8;}
	.st1{fill:none;stroke:#FFFFFF;stroke-width:16;stroke-miterlimit:10;}
</style>
<path class="st0" d="M76.71,565.67V434.05h64.54v8.17c0,3.1-0.56,5.92-1.69,8.74h1.13c4.23-7.61,10.43-12.96,16.07-16.07
	c12.4-6.76,28.47-5.92,29.31-5.92v66.8c-8.46-5.35-13.25-7.33-20.01-7.33c-7.33,0-13.25,2.54-17.47,6.2
	c-6.76,5.92-7.89,12.96-7.89,19.45v51.58H76.71z"/>
<path class="st0" d="M263.86,510.43c-0.28,6.2,1.13,15.22,4.79,19.17c1.41,1.69,4.51,3.66,9.58,3.66c4.23,0,7.33-1.69,9.58-3.66
	c1.97-1.69,3.38-4.79,4.23-7.61h62.57c-3.1,9.86-7.61,16.35-13.25,22.55c-13.25,14.94-29.59,24.8-60.31,24.8
	c-20.01,0-44.53-3.95-62.29-21.7c-8.17-8.17-18.6-23.11-18.6-45.94c0-18.6,7.05-36.92,19.73-49.6c12.4-12.12,32.13-21.7,58.62-21.7
	c25.08,0,43.69,8.17,56.65,20.86c14.09,13.53,21.98,33.54,21.98,51.86v7.33H263.86z M294.58,483.09
	c-0.28-4.51-2.25-10.15-5.64-13.25c-2.25-2.25-5.92-3.66-10.15-3.66c-3.38,0-7.05,1.41-9.3,3.38c-3.1,2.82-5.07,9.02-5.07,13.53
	H294.58z"/>
<path class="st0" d="M467.07,360.21h63.98v205.46h-62.01v-5.92c0-4.51,1.41-12.12,1.97-14.94l-1.97-0.28
	c-3.1,5.92-8.17,12.68-14.66,17.19c-7.05,4.79-16.91,7.61-27.34,7.61c-13.25,0-25.65-5.36-34.67-14.66
	c-13.25-13.25-19.45-34.67-19.45-54.4c0-23.39,8.17-42.84,20.29-54.96c7.05-7.05,18.6-14.94,35.51-14.94
	c9.58,0,18.04,2.82,24.8,7.33c5.35,3.66,10.71,9.58,14.09,13.81h1.97c-1.13-5.07-2.54-12.96-2.54-19.17V360.21z M463.12,482.25
	c-3.1-3.1-6.48-4.23-10.71-4.23c-5.64,0-9.02,1.97-10.99,3.95c-3.66,3.38-6.2,10.43-6.2,15.78c0,6.2,2.54,12.4,6.48,16.35
	c3.1,3.1,6.76,4.51,10.99,4.51c3.95,0,7.61-1.13,10.71-3.95c1.97-1.69,6.2-6.48,6.2-15.78C469.6,492.96,467.35,486.47,463.12,482.25
	z"/>
<path class="st0" d="M793.72,413.76c-5.92,6.2-16.35,10.15-27.34,10.15s-21.42-3.95-27.34-10.15c-4.79-5.07-8.17-12.68-8.17-20.86
	s3.38-15.78,8.17-20.86c5.92-6.2,16.35-10.15,27.34-10.15s21.42,3.95,27.34,10.15c4.79,5.07,8.17,12.68,8.17,20.86
	S798.52,408.68,793.72,413.76z M734.54,565.67V434.05h63.98v131.62H734.54z"/>
<path class="st0" d="M836,565.67v-82.3l-16.07,1.13v-50.45l16.07,1.13v-47.91h63.98v47.91l21.7-1.13v50.45l-21.7-1.13v82.3H836z"/>
<path class="st0" d="M694.23,452.65c-10.71-10.99-29.88-22.27-61.44-22.27s-50.73,11.27-61.44,22.27
	c-9.78,10-15.69,23.02-17.89,35.82l36.32-31.33l28.86,30.35c0.55-0.69,1.14-1.32,1.75-1.87c1.97-1.97,5.92-4.51,12.4-4.51
	s10.43,2.54,12.4,4.51c3.1,2.82,5.64,7.33,5.64,14.09c0,7.05-2.54,11.56-5.64,14.37c-1.97,1.97-5.92,4.51-12.4,4.51
	s-10.43-2.54-12.4-4.51c-1.59-1.45-3.03-3.34-4.06-5.8l-27.65-29.08l-35.46,30.59c2.22,14.84,9.13,28.03,18.12,37.26
	c10.71,10.99,29.88,22.27,61.44,22.27s50.73-11.27,61.44-22.27c10.99-11.27,18.88-28.47,18.88-47.35
	C713.12,483.65,706.92,465.62,694.23,452.65z"/>
<path class="st1" d="M684.54,654.42"/>
</svg>
